# xmcd
#
# Track frame offsets:
#	150
#	13203
#	26322
#	40861
#	52478
#	65625
#	75916
#	90151
#	102999
#	119063
#	132720
#	145509
#	160860
#	174889
#	189822
#	201500
#	215882
#	231876
#
# Disc length: 3304 seconds
#
# Revision: 0
# Processed by: cddbd v1.5.2PL0 Copyright (c) Steve Scherf et al.
# Submitted via: EasyCDDAExtractor 16.0.6.1
#
DISCID=fc0ce612
DTITLE=Ζαγοραίος Σπύρος - Τραγούδια 45 στροφές-Ζαγοραίος Σπύρος 2
DYEAR=1998
DGENRE=Λαϊκή
TTITLE0=Ζαγοραίος Σπύρος-Ζαγοραίου Ζωή - Το λούνα παρκ [1963, Κ. Βίρβου-Θ. Δερ
TTITLE0=βενιώτη]
TTITLE1=Ζαγοραίος Σπύρος-Ζαγοραίου Ζωή - Εμένανε θα παντρευτείς [1963, Θ. Δερβ
TTITLE1=ενιώτη-Κ. Βίρβου]
TTITLE2=Ζαγοραίος Σπύρος-Ζαγοραίου Ζωή - Τι βρίσκω και δεν φεύγω από σένα [196
TTITLE2=3, Μπ. Μπακάλη-Δ. Γκούτη]
TTITLE3=Ζαγοραίος Σπύρος-Ζαγοραίου Ζωή - Λυώσανε τα χιόνια [1963, Κ. Βίρβου-Σπ
TTITLE3=Ζαγοραίου]
TTITLE4=Ζαγοραίος Σπύρος-Ζαγοραίου Ζωή - Εγώ και η Ζωή μου [1963, Κ. Βίρβου-Σπ
TTITLE4=Ζαγοραίου]
TTITLE5=Ζαγοραίος Σπύρος-Ζαγοραίου Ζωή - Τι κρίμα που είναι [1963, Δ. Γκούτη-Σ
TTITLE5=π. Ζαγοραίου]
TTITLE6=Ζαγοραίος Σπύρος-Ζαγοραίου Ζωή - Δεν ήσουν εσύ [1963, Δ. Γκούτη-Σπ. Ζα
TTITLE6=γοραίου]
TTITLE7=Ζαγοραίος Σπύρος - Εγώ δεν είμαι Δον Ζουάν [1963, Δ. Γκούτη]
TTITLE8=Ζαγοραίος Σπύρος-Ζαγοραίου Ζωή - Δεν σού αξίζω [1964, Σπ. Περιστέρη-Ι.
TTITLE8=Ηλιάδη-Δ. Γκούτη]
TTITLE9=Ζαγοραίος Σπύρος-Ζαγοραίου Ζωή - Όποιος αγαπά, κέφια δεν χαλά [1964, Σ
TTITLE9=π. Περιστέρη-Ι. Ηλιάδη-Δ. Γκούτη]
TTITLE10=Ζαγοραίος Σπύρος-Ζαγοραίου Ζωή - Το ωροσκόπιο [1964, Γ. Μανισαλή-Κ. Ψ
TTITLE10=υχογιού]
TTITLE11=Ζαγοραίος Σπύρος-Ζαγοραίου Ζωή - Όσο θα ζούμε χώρια [1964, Ν. Δαλέζιο
TTITLE11=υ-Εμμ. Αμπελιώτη]
TTITLE12=Ζαγοραίος Σπύρος-Ζαγοραίου Ζωή - Και να φύγεις τώρα [1964, Ν. Δαλέζιο
TTITLE12=υ-Εμμ. Αμπελιώτη]
TTITLE13=Ζαγοραίος Σπύρος-Ζαγοραίου Ζωή - Πέταξέ μου τα κλειδιά μου [1962, Δ. 
TTITLE13=Γκούτη]
TTITLE14=Ζαγοραίος Σπύρος-Ζαγοραίου Ζωή - Δεν υπάρχει μεγαλύτερη φωτιά [Γ. Μαν
TTITLE14=ισαλή-Κ. Ψυχογιού]
TTITLE15=Ζαγοραίος Σπύρος-Ζαγοραίου Ζωή - Τράβηξα πολλά μαζί σου [1962, Γ. Μαν
TTITLE15=ισαλή-Κ. Ψυχογιού]
TTITLE16=Ζαγοραίος Σπύρος-Ζαγοραίου Ζωή - Οι όμορφες γυναίκες [1963, Δ. Γκούτη
TTITLE16=]
TTITLE17=Ζαγοραίος Σπύρος-Ζαγοραίου Ζωή - Οργή Θεού [1963, Δ. Γκούτη]
EXTD=
EXTT0=
EXTT1=
EXTT2=
EXTT3=
EXTT4=
EXTT5=
EXTT6=
EXTT7=
EXTT8=
EXTT9=
EXTT10=
EXTT11=
EXTT12=
EXTT13=
EXTT14=
EXTT15=
EXTT16=
EXTT17=
PLAYORDER=
